<svg width="14" height="15" viewBox="0 0 14 15" fill="none" xmlns="http://www.w3.org/2000/svg">
<path d="M6.99957 0.625C4.56207 0.625 2.62457 2.5625 2.62457 5C2.62457 6.52184 3.37921 7.84819 4.53985 8.63037C2.52343 9.48877 1.03895 11.3711 0.811826 13.6877C0.749326 14.0002 0.874326 14.3752 1.12433 14.6252C1.31183 14.8752 1.68707 15 1.99957 15H7.62457C8.68707 15 9.49957 14.1875 9.49957 13.125C9.49957 12.0625 8.68707 11.25 7.62457 11.25H5.2442L4.74615 9.92188C5.42658 9.57327 6.19269 9.375 6.99957 9.375C9.74957 9.375 11.9996 11.625 11.9996 14.375H13.2496C13.2496 11.8083 11.6811 9.59075 9.45562 8.63159C10.6175 7.84961 11.3746 6.52282 11.3746 5C11.3746 2.5625 9.43707 0.625 6.99957 0.625ZM6.99957 1.875C7.26136 1.875 7.51109 1.91446 7.75274 1.97266L5.53106 3.75H4.12848C4.60291 2.63823 5.69658 1.875 6.99957 1.875ZM8.98443 2.58789C9.36414 2.89902 9.67431 3.28988 9.87066 3.75H7.5318L8.98443 2.58789ZM3.87457 5H10.1246C10.1246 6.75 8.74957 8.125 6.99957 8.125C5.24957 8.125 3.87457 6.75 3.87457 5ZM3.68414 10.6506L4.84625 13.75H2.06183C2.21644 12.5131 2.81627 11.4302 3.68414 10.6506ZM5.71295 12.5H7.62457C7.99957 12.5 8.24957 12.75 8.24957 13.125C8.24957 13.5 7.99957 13.75 7.62457 13.75H6.1817L5.71295 12.5Z" fill="#495057"/>
</svg>
